<svg width="33" height="33" viewBox="0 0 33 33" fill="none" xmlns="http://www.w3.org/2000/svg">
<g clip-path="url(#clip0_85_132)">
<path d="M16.6934 0.145264C7.85336 0.145264 0.693359 7.30526 0.693359 16.1453C0.693359 23.2253 5.27336 29.2053 11.6334 31.3253C12.4334 31.4653 12.7334 30.9853 12.7334 30.5653C12.7334 30.1853 12.7134 28.9253 12.7134 27.5853C8.69336 28.3253 7.65336 26.6053 7.33336 25.7053C7.15336 25.2453 6.37336 23.8253 5.69336 23.4453C5.13336 23.1453 4.33336 22.4053 5.67336 22.3853C6.93336 22.3653 7.83336 23.5453 8.13336 24.0253C9.57336 26.4453 11.8734 25.7653 12.7934 25.3453C12.9334 24.3053 13.3534 23.6053 13.8134 23.2053C10.2534 22.8053 6.53336 21.4253 6.53336 15.3053C6.53336 13.5653 7.15336 12.1253 8.17336 11.0053C8.01336 10.6053 7.45336 8.96526 8.33336 6.76526C8.33336 6.76526 9.67336 6.34526 12.7334 8.40526C14.0134 8.04526 15.3734 7.86526 16.7334 7.86526C18.0934 7.86526 19.4534 8.04526 20.7334 8.40526C23.7934 6.32526 25.1334 6.76526 25.1334 6.76526C26.0134 8.96526 25.4534 10.6053 25.2934 11.0053C26.3134 12.1253 26.9334 13.5453 26.9334 15.3053C26.9334 21.4453 23.1934 22.8053 19.6334 23.2053C20.2134 23.7053 20.7134 24.6653 20.7134 26.1653C20.7134 28.3053 20.6934 30.0253 20.6934 30.5653C20.6934 30.9853 20.9934 31.4853 21.7934 31.3253C24.9698 30.2532 27.73 28.2119 29.6854 25.4888C31.6408 22.7656 32.6928 19.4977 32.6934 16.1453C32.6934 7.30526 25.5334 0.145264 16.6934 0.145264Z" fill="#FEFEFF"/>
</g>
<defs>
<clipPath id="clip0_85_132">
<rect width="32" height="32" fill="white" transform="translate(0.693359 0.145264)"/>
</clipPath>
</defs>
</svg>
