<svg width="29" height="29" viewBox="0 0 29 29" fill="none" xmlns="http://www.w3.org/2000/svg">
<g clip-path="url(#clip0_85_250)">
<path d="M14.2672 0.5C6.53215 0.5 0.267151 6.765 0.267151 14.5C0.267151 20.695 4.27465 25.9275 9.83965 27.7825C10.5397 27.905 10.8022 27.485 10.8022 27.1175C10.8022 26.785 10.7847 25.6825 10.7847 24.51C7.26715 25.1575 6.35715 23.6525 6.07715 22.865C5.91965 22.4625 5.23715 21.22 4.64215 20.8875C4.15215 20.625 3.45215 19.9775 4.62465 19.96C5.72715 19.9425 6.51465 20.975 6.77715 21.395C8.03715 23.5125 10.0497 22.9175 10.8547 22.55C10.9772 21.64 11.3447 21.0275 11.7472 20.6775C8.63215 20.3275 5.37715 19.12 5.37715 13.765C5.37715 12.2425 5.91965 10.9825 6.81215 10.0025C6.67215 9.6525 6.18215 8.2175 6.95215 6.2925C6.95215 6.2925 8.12465 5.925 10.8022 7.7275C11.9222 7.4125 13.1122 7.255 14.3022 7.255C15.4922 7.255 16.6822 7.4125 17.8022 7.7275C20.4797 5.9075 21.6522 6.2925 21.6522 6.2925C22.4222 8.2175 21.9322 9.6525 21.7922 10.0025C22.6847 10.9825 23.2271 12.225 23.2271 13.765C23.2271 19.1375 19.9547 20.3275 16.8397 20.6775C17.3472 21.115 17.7847 21.955 17.7847 23.2675C17.7847 25.14 17.7672 26.645 17.7672 27.1175C17.7672 27.485 18.0297 27.9225 18.7297 27.7825C21.5091 26.8445 23.9242 25.0583 25.6352 22.6756C27.3461 20.2928 28.2667 17.4334 28.2672 14.5C28.2672 6.765 22.0022 0.5 14.2672 0.5Z" fill="#0C1188"/>
</g>
<defs>
<clipPath id="clip0_85_250">
<rect width="28" height="28" fill="white" transform="translate(0.267151 0.5)"/>
</clipPath>
</defs>
</svg>
