<svg width="31" height="31" viewBox="0 0 31 31" fill="none" xmlns="http://www.w3.org/2000/svg">
<path d="M27.36 0.145264C28.2441 0.145264 29.0919 0.496453 29.717 1.12157C30.3422 1.7467 30.6934 2.59454 30.6934 3.4786V26.8119C30.6934 27.696 30.3422 28.5438 29.717 29.169C29.0919 29.7941 28.2441 30.1453 27.36 30.1453H4.02669C3.14264 30.1453 2.29479 29.7941 1.66967 29.169C1.04455 28.5438 0.693359 27.696 0.693359 26.8119V3.4786C0.693359 2.59454 1.04455 1.7467 1.66967 1.12157C2.29479 0.496453 3.14264 0.145264 4.02669 0.145264H27.36ZM26.5267 25.9786V17.1453C26.5267 15.7043 25.9543 14.3223 24.9353 13.3033C23.9164 12.2844 22.5344 11.7119 21.0934 11.7119C19.6767 11.7119 18.0267 12.5786 17.2267 13.8786V12.0286H12.5767V25.9786H17.2267V17.7619C17.2267 16.4786 18.26 15.4286 19.5434 15.4286C20.1622 15.4286 20.7557 15.6744 21.1933 16.112C21.6309 16.5496 21.8767 17.1431 21.8767 17.7619V25.9786H26.5267ZM7.16003 9.41193C7.90263 9.41193 8.61482 9.11693 9.13993 8.59183C9.66503 8.06673 9.96003 7.35454 9.96003 6.61193C9.96003 5.06193 8.71003 3.79526 7.16003 3.79526C6.413 3.79526 5.69657 4.09202 5.16834 4.62025C4.64011 5.14847 4.34336 5.8649 4.34336 6.61193C4.34336 8.16193 5.61003 9.41193 7.16003 9.41193ZM9.47669 25.9786V12.0286H4.86003V25.9786H9.47669Z" fill="#FEFEFF"/>
</svg>
