<svg width="25" height="25" viewBox="0 0 25 25" fill="none" xmlns="http://www.w3.org/2000/svg">
<path d="M21.6005 0.5C22.3077 0.5 22.986 0.780951 23.4861 1.28105C23.9862 1.78115 24.2672 2.45942 24.2672 3.16667V21.8333C24.2672 22.5406 23.9862 23.2189 23.4861 23.719C22.986 24.219 22.3077 24.5 21.6005 24.5H2.93382C2.22657 24.5 1.5483 24.219 1.0482 23.719C0.548102 23.2189 0.267151 22.5406 0.267151 21.8333V3.16667C0.267151 2.45942 0.548102 1.78115 1.0482 1.28105C1.5483 0.780951 2.22657 0.5 2.93382 0.5H21.6005ZM20.9338 21.1667V14.1C20.9338 12.9472 20.4759 11.8416 19.6607 11.0264C18.8456 10.2113 17.74 9.75333 16.5872 9.75333C15.4538 9.75333 14.1338 10.4467 13.4938 11.4867V10.0067H9.77382V21.1667H13.4938V14.5933C13.4938 13.5667 14.3205 12.7267 15.3472 12.7267C15.8422 12.7267 16.317 12.9233 16.6671 13.2734C17.0172 13.6235 17.2138 14.0983 17.2138 14.5933V21.1667H20.9338ZM5.44048 7.91333C6.03457 7.91333 6.60432 7.67733 7.0244 7.25725C7.44449 6.83717 7.68048 6.26742 7.68048 5.67333C7.68048 4.43333 6.68048 3.42 5.44048 3.42C4.84286 3.42 4.26972 3.6574 3.84714 4.07999C3.42455 4.50257 3.18715 5.07571 3.18715 5.67333C3.18715 6.91333 4.20048 7.91333 5.44048 7.91333M7.29382 21.1667V10.0067H3.60048V21.1667H7.29382V21.1667Z" fill="#0C1188"/>
</svg>
