<svg width="115" height="61" viewBox="0 0 115 61" fill="none" xmlns="http://www.w3.org/2000/svg">
<path d="M16.4866 23.1125H23.509V24.7854H16.4866V23.1125ZM16.6811 30.2905H14.7359V16.6737H24.3455V18.3661H16.6811V30.2905ZM32.8314 30.2905V28.1118L32.7341 27.7033V23.9879C32.7341 23.1968 32.5007 22.5873 32.0338 22.1593C31.5799 21.7184 30.8926 21.4979 29.9719 21.4979C29.3623 21.4979 28.7658 21.6017 28.1822 21.8092C27.5986 22.0037 27.1058 22.2696 26.7038 22.6067L25.9257 21.2061C26.4574 20.7782 27.0929 20.454 27.8321 20.2335C28.5842 20.0001 29.3688 19.8834 30.1858 19.8834C31.5994 19.8834 32.6887 20.227 33.4539 20.9144C34.219 21.6017 34.6016 22.6521 34.6016 24.0657V30.2905H32.8314ZM29.4466 30.4072C28.6815 30.4072 28.0071 30.2776 27.4236 30.0182C26.8529 29.7588 26.412 29.4022 26.1008 28.9483C25.7895 28.4814 25.6339 27.9562 25.6339 27.3726C25.6339 26.815 25.7636 26.3092 26.023 25.8553C26.2953 25.4014 26.7297 25.0383 27.3263 24.766C27.9358 24.4936 28.7528 24.3575 29.7773 24.3575H33.0454V25.6997H29.8551C28.9214 25.6997 28.2924 25.8553 27.9682 26.1666C27.644 26.4778 27.4819 26.8539 27.4819 27.2948C27.4819 27.8006 27.6829 28.2091 28.0849 28.5203C28.487 28.8186 29.0446 28.9677 29.7579 28.9677C30.4582 28.9677 31.0677 28.8121 31.5864 28.5009C32.1181 28.1896 32.5007 27.7357 32.7341 27.1392L33.1037 28.4231C32.8573 29.0326 32.4229 29.5189 31.8004 29.882C31.1779 30.2322 30.3933 30.4072 29.4466 30.4072ZM43.5237 30.4072C42.6418 30.4072 41.8442 30.2127 41.131 29.8237C40.4307 29.4216 39.873 28.8316 39.4581 28.0535C39.056 27.2754 38.855 26.3027 38.855 25.1356C38.855 23.9684 39.0625 22.9958 39.4775 22.2177C39.9055 21.4396 40.4696 20.856 41.1699 20.4669C41.8831 20.0779 42.6677 19.8834 43.5237 19.8834C44.5352 19.8834 45.43 20.1038 46.2081 20.5448C46.9862 20.9857 47.6022 21.6017 48.0561 22.3928C48.51 23.1709 48.737 24.0851 48.737 25.1356C48.737 26.186 48.51 27.1068 48.0561 27.8979C47.6022 28.6889 46.9862 29.3049 46.2081 29.7459C45.43 30.1868 44.5352 30.4072 43.5237 30.4072ZM38.0575 30.2905V15.8567H39.9249V22.7235L39.7304 25.1161L39.8471 27.5088V30.2905H38.0575ZM43.368 28.7732C44.0294 28.7732 44.6195 28.6241 45.1382 28.3258C45.6699 28.0275 46.0849 27.6061 46.3832 27.0614C46.6944 26.5037 46.8501 25.8618 46.8501 25.1356C46.8501 24.3964 46.6944 23.7609 46.3832 23.2292C46.0849 22.6845 45.6699 22.2631 45.1382 21.9648C44.6195 21.6665 44.0294 21.5174 43.368 21.5174C42.7196 21.5174 42.1295 21.6665 41.5978 21.9648C41.0791 22.2631 40.6641 22.6845 40.3529 23.2292C40.0546 23.7609 39.9055 24.3964 39.9055 25.1356C39.9055 25.8618 40.0546 26.5037 40.3529 27.0614C40.6641 27.6061 41.0791 28.0275 41.5978 28.3258C42.1295 28.6241 42.7196 28.7732 43.368 28.7732ZM51.3172 30.2905V19.9806H53.1846V30.2905H51.3172ZM52.2509 17.9965C51.8878 17.9965 51.583 17.8797 51.3366 17.6463C51.1032 17.4129 50.9865 17.1276 50.9865 16.7904C50.9865 16.4403 51.1032 16.1485 51.3366 15.915C51.583 15.6816 51.8878 15.5649 52.2509 15.5649C52.614 15.5649 52.9123 15.6816 53.1457 15.915C53.3921 16.1355 53.5153 16.4143 53.5153 16.7515C53.5153 17.1016 53.3986 17.3999 53.1652 17.6463C52.9317 17.8797 52.627 17.9965 52.2509 17.9965ZM63.1501 30.2905V28.1118L63.0529 27.7033V23.9879C63.0529 23.1968 62.8194 22.5873 62.3526 22.1593C61.8987 21.7184 61.2114 21.4979 60.2906 21.4979C59.6811 21.4979 59.0845 21.6017 58.501 21.8092C57.9174 22.0037 57.4246 22.2696 57.0226 22.6067L56.2445 21.2061C56.7762 20.7782 57.4116 20.454 58.1508 20.2335C58.903 20.0001 59.6876 19.8834 60.5046 19.8834C61.9181 19.8834 63.0075 20.227 63.7726 20.9144C64.5378 21.6017 64.9203 22.6521 64.9203 24.0657V30.2905H63.1501ZM59.7654 30.4072C59.0002 30.4072 58.3259 30.2776 57.7423 30.0182C57.1717 29.7588 56.7308 29.4022 56.4195 28.9483C56.1083 28.4814 55.9527 27.9562 55.9527 27.3726C55.9527 26.815 56.0823 26.3092 56.3417 25.8553C56.6141 25.4014 57.0485 25.0383 57.645 24.766C58.2546 24.4936 59.0716 24.3575 60.0961 24.3575H63.3641V25.6997H60.1739C59.2402 25.6997 58.6112 25.8553 58.287 26.1666C57.9628 26.4778 57.8007 26.8539 57.8007 27.2948C57.8007 27.8006 58.0017 28.2091 58.4037 28.5203C58.8057 28.8186 59.3634 28.9677 60.0766 28.9677C60.7769 28.9677 61.3864 28.8121 61.9052 28.5009C62.4369 28.1896 62.8194 27.7357 63.0529 27.1392L63.4225 28.4231C63.1761 29.0326 62.7416 29.5189 62.1191 29.882C61.4967 30.2322 60.7121 30.4072 59.7654 30.4072ZM73.8813 19.8834C74.7243 19.8834 75.4635 20.0455 76.0989 20.3697C76.7473 20.6939 77.2531 21.1867 77.6162 21.8481C77.9793 22.5095 78.1609 23.3459 78.1609 24.3575V30.2905H76.2934V24.5715C76.2934 23.5729 76.047 22.8207 75.5542 22.3149C75.0744 21.8092 74.3936 21.5563 73.5117 21.5563C72.8503 21.5563 72.2732 21.686 71.7804 21.9453C71.2876 22.2047 70.9051 22.5873 70.6327 23.0931C70.3733 23.5988 70.2437 24.2278 70.2437 24.98V30.2905H68.3762V19.9806H70.1659V22.7624L69.8741 22.0232C70.2112 21.3488 70.73 20.8236 71.4303 20.4475C72.1306 20.0714 72.9476 19.8834 73.8813 19.8834ZM86.0327 30.4072C84.9952 30.4072 84.0744 30.1803 83.2704 29.7264C82.4663 29.2725 81.8309 28.65 81.364 27.8589C80.8972 27.0549 80.6637 26.1471 80.6637 25.1356C80.6637 24.1111 80.8972 23.2033 81.364 22.4122C81.8309 21.6211 82.4663 21.0051 83.2704 20.5642C84.0744 20.1103 84.9952 19.8834 86.0327 19.8834C87.0572 19.8834 87.9714 20.1103 88.7755 20.5642C89.5925 21.0051 90.2279 21.6211 90.6818 22.4122C91.1487 23.1903 91.3821 24.0981 91.3821 25.1356C91.3821 26.1601 91.1487 27.0679 90.6818 27.8589C90.2279 28.65 89.5925 29.2725 88.7755 29.7264C87.9714 30.1803 87.0572 30.4072 86.0327 30.4072ZM86.0327 28.7732C86.6941 28.7732 87.2841 28.6241 87.8029 28.3258C88.3346 28.0275 88.7495 27.6061 89.0478 27.0614C89.3461 26.5037 89.4952 25.8618 89.4952 25.1356C89.4952 24.3964 89.3461 23.7609 89.0478 23.2292C88.7495 22.6845 88.3346 22.2631 87.8029 21.9648C87.2841 21.6665 86.6941 21.5174 86.0327 21.5174C85.3713 21.5174 84.7812 21.6665 84.2625 21.9648C83.7437 22.2631 83.3287 22.6845 83.0175 23.2292C82.7063 23.7609 82.5506 24.3964 82.5506 25.1356C82.5506 25.8618 82.7063 26.5037 83.0175 27.0614C83.3287 27.6061 83.7437 28.0275 84.2625 28.3258C84.7812 28.6241 85.3713 28.7732 86.0327 28.7732Z" fill="#FEFEFF"/>
<path d="M14.7359 55.2905V41.6737H20.4744C21.9269 41.6737 23.2043 41.959 24.3066 42.5296C25.4219 43.1002 26.2843 43.8978 26.8938 44.9223C27.5163 45.9468 27.8275 47.1334 27.8275 48.4821C27.8275 49.8308 27.5163 51.0174 26.8938 52.0419C26.2843 53.0664 25.4219 53.864 24.3066 54.4346C23.2043 55.0052 21.9269 55.2905 20.4744 55.2905H14.7359ZM16.6811 53.5981H20.3577C21.4859 53.5981 22.4586 53.3842 23.2756 52.9562C24.1056 52.5283 24.7475 51.9317 25.2014 51.1666C25.6553 50.3885 25.8822 49.4936 25.8822 48.4821C25.8822 47.4576 25.6553 46.5628 25.2014 45.7976C24.7475 45.0325 24.1056 44.436 23.2756 44.008C22.4586 43.58 21.4859 43.3661 20.3577 43.3661H16.6811V53.5981ZM35.1256 55.4072C34.0233 55.4072 33.0506 55.1803 32.2077 54.7264C31.3777 54.2725 30.7293 53.65 30.2624 52.8589C29.8085 52.0679 29.5816 51.1601 29.5816 50.1356C29.5816 49.1111 29.802 48.2033 30.243 47.4122C30.6969 46.6211 31.3129 46.0051 32.091 45.5642C32.882 45.1103 33.7704 44.8834 34.756 44.8834C35.7546 44.8834 36.6364 45.1038 37.4015 45.5448C38.1667 45.9857 38.7632 46.6082 39.1912 47.4122C39.6321 48.2033 39.8526 49.1305 39.8526 50.1939C39.8526 50.2717 39.8461 50.3625 39.8331 50.4663C39.8331 50.57 39.8266 50.6673 39.8137 50.7581H31.0405V49.4158H38.841L38.0824 49.8827C38.0954 49.2213 37.9592 48.6312 37.6739 48.1125C37.3886 47.5938 36.993 47.1917 36.4873 46.9064C35.9945 46.6082 35.4174 46.459 34.756 46.459C34.1076 46.459 33.5305 46.6082 33.0247 46.9064C32.5189 47.1917 32.1234 47.6003 31.8381 48.132C31.5528 48.6507 31.4101 49.2472 31.4101 49.9216V50.2328C31.4101 50.9202 31.5658 51.5362 31.877 52.0808C32.2012 52.6125 32.6486 53.0275 33.2192 53.3258C33.7898 53.6241 34.4447 53.7732 35.1839 53.7732C35.7935 53.7732 36.3446 53.6695 36.8374 53.462C37.3432 53.2545 37.7841 52.9432 38.1602 52.5283L39.1912 53.7343C38.7243 54.279 38.1407 54.694 37.4404 54.9793C36.7531 55.2646 35.9815 55.4072 35.1256 55.4072ZM44.9597 55.2905L40.4466 44.9806H42.3919L46.3991 54.3179H45.4654L49.5505 44.9806H51.379L46.866 55.2905H44.9597ZM57.4277 55.4072C56.3254 55.4072 55.3528 55.1803 54.5098 54.7264C53.6798 54.2725 53.0314 53.65 52.5646 52.8589C52.1107 52.0679 51.8837 51.1601 51.8837 50.1356C51.8837 49.1111 52.1042 48.2033 52.5451 47.4122C52.999 46.6211 53.615 46.0051 54.3931 45.5642C55.1842 45.1103 56.0725 44.8834 57.0581 44.8834C58.0567 44.8834 58.9385 45.1038 59.7037 45.5448C60.4688 45.9857 61.0654 46.6082 61.4933 47.4122C61.9342 48.2033 62.1547 49.1305 62.1547 50.1939C62.1547 50.2717 62.1482 50.3625 62.1353 50.4663C62.1353 50.57 62.1288 50.6673 62.1158 50.7581H53.3427V49.4158H61.1432L60.3845 49.8827C60.3975 49.2213 60.2613 48.6312 59.976 48.1125C59.6907 47.5938 59.2952 47.1917 58.7894 46.9064C58.2966 46.6082 57.7195 46.459 57.0581 46.459C56.4097 46.459 55.8326 46.6082 55.3268 46.9064C54.8211 47.1917 54.4255 47.6003 54.1402 48.132C53.8549 48.6507 53.7123 49.2472 53.7123 49.9216V50.2328C53.7123 50.9202 53.8679 51.5362 54.1791 52.0808C54.5033 52.6125 54.9508 53.0275 55.5214 53.3258C56.092 53.6241 56.7469 53.7732 57.4861 53.7732C58.0956 53.7732 58.6468 53.6695 59.1396 53.462C59.6453 53.2545 60.0862 52.9432 60.4623 52.5283L61.4933 53.7343C61.0265 54.279 60.4429 54.694 59.7426 54.9793C59.0553 55.2646 58.2836 55.4072 57.4277 55.4072ZM64.7478 55.2905V40.8567H66.6153V55.2905H64.7478ZM74.5966 55.4072C73.5592 55.4072 72.6384 55.1803 71.8344 54.7264C71.0303 54.2725 70.3949 53.65 69.928 52.8589C69.4612 52.0549 69.2277 51.1471 69.2277 50.1356C69.2277 49.1111 69.4612 48.2033 69.928 47.4122C70.3949 46.6211 71.0303 46.0051 71.8344 45.5642C72.6384 45.1103 73.5592 44.8834 74.5966 44.8834C75.6212 44.8834 76.5354 45.1103 77.3395 45.5642C78.1565 46.0051 78.7919 46.6211 79.2458 47.4122C79.7127 48.1903 79.9461 49.0981 79.9461 50.1356C79.9461 51.1601 79.7127 52.0679 79.2458 52.8589C78.7919 53.65 78.1565 54.2725 77.3395 54.7264C76.5354 55.1803 75.6212 55.4072 74.5966 55.4072ZM74.5966 53.7732C75.258 53.7732 75.8481 53.6241 76.3668 53.3258C76.8985 53.0275 77.3135 52.6061 77.6118 52.0614C77.9101 51.5037 78.0592 50.8618 78.0592 50.1356C78.0592 49.3964 77.9101 48.7609 77.6118 48.2292C77.3135 47.6845 76.8985 47.2631 76.3668 46.9648C75.8481 46.6665 75.258 46.5174 74.5966 46.5174C73.9353 46.5174 73.3452 46.6665 72.8265 46.9648C72.3077 47.2631 71.8927 47.6845 71.5815 48.2292C71.2702 48.7609 71.1146 49.3964 71.1146 50.1356C71.1146 50.8618 71.2702 51.5037 71.5815 52.0614C71.8927 52.6061 72.3077 53.0275 72.8265 53.3258C73.3452 53.6241 73.9353 53.7732 74.5966 53.7732ZM87.9949 55.4072C87.139 55.4072 86.3544 55.2127 85.6412 54.8237C84.9409 54.4216 84.3768 53.8316 83.9488 53.0535C83.5338 52.2754 83.3263 51.3027 83.3263 50.1356C83.3263 48.9684 83.5273 47.9958 83.9293 47.2177C84.3443 46.4396 84.902 45.856 85.6023 45.4669C86.3155 45.0779 87.1131 44.8834 87.9949 44.8834C89.0065 44.8834 89.9013 45.1038 90.6794 45.5448C91.4575 45.9857 92.0735 46.6017 92.5274 47.3928C92.9813 48.1709 93.2083 49.0851 93.2083 50.1356C93.2083 51.186 92.9813 52.1068 92.5274 52.8979C92.0735 53.6889 91.4575 54.3049 90.6794 54.7459C89.9013 55.1868 89.0065 55.4072 87.9949 55.4072ZM82.5288 59.0643V44.9806H84.3184V47.7624L84.2017 50.155L84.3962 52.5477V59.0643H82.5288ZM87.8393 53.7732C88.5007 53.7732 89.0908 53.6241 89.6095 53.3258C90.1412 53.0275 90.5562 52.6061 90.8545 52.0614C91.1657 51.5037 91.3213 50.8618 91.3213 50.1356C91.3213 49.3964 91.1657 48.7609 90.8545 48.2292C90.5562 47.6845 90.1412 47.2631 89.6095 46.9648C89.0908 46.6665 88.5007 46.5174 87.8393 46.5174C87.1909 46.5174 86.6008 46.6665 86.0691 46.9648C85.5504 47.2631 85.1354 47.6845 84.8242 48.2292C84.5259 48.7609 84.3768 49.3964 84.3768 50.1356C84.3768 50.8618 84.5259 51.5037 84.8242 52.0614C85.1354 52.6061 85.5504 53.0275 86.0691 53.3258C86.6008 53.6241 87.1909 53.7732 87.8393 53.7732ZM100.379 55.4072C99.277 55.4072 98.3043 55.1803 97.4614 54.7264C96.6314 54.2725 95.983 53.65 95.5161 52.8589C95.0622 52.0679 94.8353 51.1601 94.8353 50.1356C94.8353 49.1111 95.0557 48.2033 95.4967 47.4122C95.9506 46.6211 96.5666 46.0051 97.3447 45.5642C98.1357 45.1103 99.0241 44.8834 100.01 44.8834C101.008 44.8834 101.89 45.1038 102.655 45.5448C103.42 45.9857 104.017 46.6082 104.445 47.4122C104.886 48.2033 105.106 49.1305 105.106 50.1939C105.106 50.2717 105.1 50.3625 105.087 50.4663C105.087 50.57 105.08 50.6673 105.067 50.7581H96.2942V49.4158H104.095L103.336 49.8827C103.349 49.2213 103.213 48.6312 102.928 48.1125C102.642 47.5938 102.247 47.1917 101.741 46.9064C101.248 46.6082 100.671 46.459 100.01 46.459C99.3613 46.459 98.7842 46.6082 98.2784 46.9064C97.7726 47.1917 97.3771 47.6003 97.0918 48.132C96.8065 48.6507 96.6638 49.2472 96.6638 49.9216V50.2328C96.6638 50.9202 96.8195 51.5362 97.1307 52.0808C97.4549 52.6125 97.9023 53.0275 98.4729 53.3258C99.0435 53.6241 99.6984 53.7732 100.438 53.7732C101.047 53.7732 101.598 53.6695 102.091 53.462C102.597 53.2545 103.038 52.9432 103.414 52.5283L104.445 53.7343C103.978 54.279 103.394 54.694 102.694 54.9793C102.007 55.2646 101.235 55.4072 100.379 55.4072ZM107.699 55.2905V44.9806H109.489V47.7818L109.314 47.0815C109.599 46.3683 110.079 45.8236 110.753 45.4475C111.428 45.0714 112.258 44.8834 113.243 44.8834V46.6925C113.166 46.6795 113.088 46.673 113.01 46.673C112.945 46.673 112.88 46.673 112.815 46.673C111.817 46.673 111.026 46.9713 110.442 47.5678C109.859 48.1644 109.567 49.0268 109.567 50.155V55.2905H107.699Z" fill="#FEFEFF"/>
<path d="M2 23.1167V2H23.1167" stroke="#FEFEFF" stroke-width="2.42551"/>
<path d="M6.44562 23.1167V7.92749H19.7825" stroke="#D9DAEE" stroke-width="2.42551"/>
</svg>
