<svg width="32" height="32" viewBox="0 0 32 32" fill="none" xmlns="http://www.w3.org/2000/svg">
<path d="M26.7736 9.26526C22.9336 3.34526 15.0936 1.58526 9.01357 5.26526C3.09357 8.94526 1.17357 16.9453 5.01357 22.8653L5.33357 23.3453L4.05357 28.1453L8.85357 26.8653L9.33357 27.1853C11.4136 28.3053 13.6536 28.9453 15.8936 28.9453C18.2936 28.9453 20.6936 28.3053 22.7736 27.0253C28.6936 23.1853 30.4536 15.3453 26.7736 9.26526ZM23.4136 21.5853C22.7736 22.5453 21.9736 23.1853 20.8536 23.3453C20.2136 23.3453 19.4136 23.6653 16.2136 22.3853C13.4936 21.1053 11.2536 19.0253 9.65357 16.6253C8.69357 15.5053 8.21357 14.0653 8.05357 12.6253C8.05357 11.3453 8.53357 10.2253 9.33357 9.42526C9.65357 9.10526 9.97357 8.94526 10.2936 8.94526H11.0936C11.4136 8.94526 11.7336 8.94526 11.8936 9.58526C12.2136 10.3853 13.0136 12.3053 13.0136 12.4653C13.1736 12.6253 13.1736 12.9453 13.0136 13.1053C13.1736 13.4253 13.0136 13.7453 12.8536 13.9053C12.6936 14.0653 12.5336 14.3853 12.3736 14.5453C12.0536 14.7053 11.8936 15.0253 12.0536 15.3453C12.6936 16.3053 13.4936 17.2653 14.2936 18.0653C15.2536 18.8653 16.2136 19.5053 17.3336 19.9853C17.6536 20.1453 17.9736 20.1453 18.1336 19.8253C18.2936 19.5053 19.0936 18.7053 19.4136 18.3853C19.7336 18.0653 19.8936 18.0653 20.2136 18.2253L22.7736 19.5053C23.0936 19.6653 23.4136 19.8253 23.5736 19.9853C23.7336 20.4653 23.7336 21.1053 23.4136 21.5853Z" fill="#FEFEFF"/>
</svg>
